<svg xmlns="http://www.w3.org/2000/svg" viewBox="0 0 2048 2048" width="64" height="64">
  <path d="M1845 1611q36 36 55 83t20 98q0 53-20 99t-55 82-81 55-100 20q-53 0-99-20t-82-55-55-81-20-100q0-51 19-98t56-83l181-181 181 181zm-181 309q27 0 50-10t40-27 27-41 10-50q0-53-37-90l-90-91-91 91q-18 18-27 41t-10 49q0 27 10 50t27 41 40 27 51 10zM1344 512q119 0 224 45t183 124 123 183 46 224v192h-512v-192q0-26-19-45t-45-19h-192q-106 0-199 40t-162 110-110 163-41 199v512H128V0h1280v128H640v522q117-69 246-103t266-35h192zm448 576q0-93-35-174t-96-142-142-96-175-36h-192q-148 0-284 46T614 820l-102 77V128H256v1792h256v-384q0-133 50-249t137-204 203-137 250-50h192q40 0 75 15t61 41 41 61 15 75v64h256v-64z" />
</svg>