<svg width="13" height="17" viewBox="0 0 13 17" fill="none" xmlns="http://www.w3.org/2000/svg">
<path d="M5.68109 9.46419L6.45374 10.2368L7.8966 8.14085" stroke="black" stroke-width="1.5" stroke-linecap="round" stroke-linejoin="round"/>
<path d="M9.86452 9.18671C9.86452 10.9327 8.45155 12.3456 6.70561 12.3456C4.95967 12.3456 3.54669 10.9327 3.54669 9.18671C3.54669 7.44077 4.95967 6.0278 6.70561 6.0278" stroke="black" stroke-width="1.5" stroke-linecap="round" stroke-linejoin="round"/>
<path d="M9.06061 2.64999H10.7106C11.5406 2.64999 12.2206 3.33999 12.2206 4.19999V13.95C12.2206 14.81 11.5406 15.5 10.7106 15.5H2.70061C1.87061 15.5 1.19061 14.81 1.19061 13.95V4.19999C1.19061 3.33999 1.87061 2.64999 2.70061 2.64999H4.35061" stroke="black" stroke-width="1.5" stroke-linecap="round" stroke-linejoin="round"/>
<path d="M8.02061 3.31H5.39061C4.76061 3.31 4.25061 2.8 4.25061 2.17V2.14C4.25061 1.51 4.76061 1 5.39061 1H8.03061C8.66061 1 9.17061 1.51 9.17061 2.14V2.17C9.16061 2.8 8.65061 3.31 8.02061 3.31Z" stroke="black" stroke-width="1.5" stroke-linecap="round" stroke-linejoin="round"/>
</svg>
