<svg xmlns="http://www.w3.org/2000/svg" viewBox="0 0 2048 2048" width="64" height="64">
  <path d="M1772 1108q58 9 108 37t86 70 57 96 21 113q0 66-25 124t-68 102-102 69-125 25H505v-3q-74-9-137-43t-109-86-72-119-27-141q0-64 20-123t56-108 86-86 111-56q-17-38-25-79t-8-84q0-86 33-161t89-132 132-90 162-33q67 0 130 21t115 59 91 92 60 117h16q8 0 16-1 92 0 176 30t153 85 116 129 70 165h13v11zM816 448q-76 0-143 29t-117 79-79 117-29 143q0 78 32 151 34-7 72-7 54 0 105 14t98 43q26-64 67-118t94-97 115-69 132-39q-19-55-54-100t-80-78-100-50-113-18zm908 1248q56 0 105-21t87-59 58-86 22-106q0-56-21-105t-59-87-86-58-106-22v-7h-5q-14-88-56-163t-105-129-144-86-170-31q-82 0-157 26t-136 74-106 114-65 145q-48-42-106-64t-122-23q-71 0-134 27t-109 73-74 110-27 134q0 71 27 134t73 109 110 74 134 27h1172zM256 832H0v-48h256v48zm128-390L203 261l34-34 181 181-34 34zm448-186h-48V0h48v256zm400 186l-34-34 181-181 34 34-181 181z" />
</svg>